<svg width="100" height="100" viewBox="0 0 100 100" fill="none" xmlns="http://www.w3.org/2000/svg">
<path d="M86.9188 6.25H13.0813C11.2701 6.25199 9.5337 6.97234 8.25302 8.25302C6.97234 9.5337 6.25199 11.2701 6.25 13.0813V73.1687C6.25199 74.9799 6.97234 76.7163 8.25302 77.997C9.5337 79.2777 11.2701 79.998 13.0813 80H38.3063C37.9188 84.0225 35.2712 87.1688 30.4113 91.5738C30.2242 91.7432 30.0929 91.9654 30.0345 92.211C29.9761 92.4565 29.9935 92.714 30.0843 92.9495C30.175 93.1851 30.335 93.3876 30.5431 93.5305C30.7511 93.6733 30.9976 93.7499 31.25 93.75H68.75C69.0124 93.75 69.2681 93.6674 69.4809 93.5141C69.6937 93.3606 69.8529 93.1442 69.9359 92.8953C70.0188 92.6464 70.0214 92.3777 69.9431 92.1273C69.8649 91.8769 69.7099 91.6574 69.5 91.5C64.4812 87.7362 61.86 83.8725 61.6375 80H86.9188C88.7299 79.998 90.4663 79.2777 91.747 77.997C93.0277 76.7163 93.748 74.9799 93.75 73.1687V13.0813C93.748 11.2701 93.0277 9.5337 91.747 8.25302C90.4663 6.97234 88.7299 6.25199 86.9188 6.25ZM13.0813 8.75H86.9188C88.0671 8.75132 89.168 9.20808 89.9799 10.0201C90.7919 10.832 91.2487 11.9329 91.25 13.0813V65H8.75V13.0813C8.75132 11.9329 9.20808 10.832 10.0201 10.0201C10.832 9.20808 11.9329 8.75132 13.0813 8.75ZM65.275 91.25H34.4188C37.8587 87.8962 40.4875 84.4788 40.8413 80H59.1063C59.275 83.875 61.3425 87.6438 65.275 91.25ZM86.9175 77.5H13.0813C11.9329 77.4987 10.832 77.0419 10.0201 76.2299C9.20808 75.418 8.75132 74.3171 8.75 73.1687V67.5H91.25V73.1687C91.2487 74.3171 90.7919 75.418 89.9799 76.2299C89.168 77.0419 88.0671 77.4987 86.9188 77.5H86.9175Z" fill="#265729"/>
<path d="M22.5 71.25H17.5C17.1685 71.25 16.8505 71.3817 16.6161 71.6161C16.3817 71.8505 16.25 72.1685 16.25 72.5C16.25 72.8315 16.3817 73.1495 16.6161 73.3839C16.8505 73.6183 17.1685 73.75 17.5 73.75H22.5C22.8315 73.75 23.1495 73.6183 23.3839 73.3839C23.6183 73.1495 23.75 72.8315 23.75 72.5C23.75 72.1685 23.6183 71.8505 23.3839 71.6161C23.1495 71.3817 22.8315 71.25 22.5 71.25ZM38.9125 32.8362H44.2163V37.0475C44.2163 37.379 44.3479 37.697 44.5824 37.9314C44.8168 38.1658 45.1347 38.2975 45.4663 38.2975C45.7978 38.2975 46.1157 38.1658 46.3501 37.9314C46.5846 37.697 46.7163 37.379 46.7163 37.0475V32.835H48.7437C49.0753 32.835 49.3932 32.7033 49.6276 32.4689C49.8621 32.2345 49.9937 31.9165 49.9937 31.585C49.9937 31.2535 49.8621 30.9355 49.6276 30.7011C49.3932 30.4667 49.0753 30.335 48.7437 30.335H46.7163V22.8475C46.7163 22.8175 46.7013 22.7925 46.6988 22.7625C46.691 22.6772 46.6742 22.593 46.6488 22.5112C46.6263 22.4362 46.6075 22.3637 46.5737 22.295C46.5387 22.2262 46.4912 22.1662 46.4437 22.1037C46.394 22.0342 46.337 21.9701 46.2738 21.9125C46.2513 21.8937 46.24 21.8662 46.2162 21.8487C46.1762 21.8175 46.1287 21.8112 46.0863 21.7862C46.0137 21.7415 45.9366 21.7047 45.8563 21.6762C45.7757 21.6509 45.6928 21.6342 45.6087 21.6262C45.5588 21.6212 45.5163 21.5975 45.4663 21.5975C45.4363 21.5975 45.41 21.6125 45.3813 21.615C45.2964 21.6229 45.2126 21.6396 45.1312 21.665C45.055 21.6875 44.9813 21.7062 44.9125 21.7412C44.8438 21.7762 44.785 21.8225 44.7225 21.87C44.653 21.9198 44.5888 21.9768 44.5312 22.04C44.5112 22.0625 44.485 22.0737 44.4663 22.0975L37.9137 30.835C37.7745 31.0207 37.6896 31.2415 37.6688 31.4727C37.648 31.7039 37.6919 31.9364 37.7957 32.144C37.8995 32.3516 38.0591 32.5263 38.2566 32.6483C38.4541 32.7703 38.6816 32.835 38.9137 32.835L38.9125 32.8362ZM44.2163 26.5987V30.3362H41.4125L44.2163 26.5987ZM24.6988 35.0237C24.5102 35.1926 24.3773 35.4147 24.3177 35.6606C24.2581 35.9066 24.2746 36.1649 24.365 36.4013C24.4553 36.6377 24.6153 36.8411 24.8238 36.9846C25.0323 37.1281 25.2794 37.205 25.5325 37.205H34.27C34.6015 37.205 34.9195 37.0733 35.1539 36.8389C35.3883 36.6045 35.52 36.2865 35.52 35.955C35.52 35.6235 35.3883 35.3055 35.1539 35.0711C34.9195 34.8367 34.6015 34.705 34.27 34.705H28.8025L33.2325 30.7362C34.3125 29.6237 34.86 28.3487 34.86 26.9437C34.86 23.9962 32.3925 21.5975 29.36 21.5975C27.24 21.5975 25.345 22.7475 24.415 24.6C24.337 24.7471 24.2891 24.9083 24.2743 25.0742C24.2594 25.24 24.2778 25.4072 24.3284 25.5658C24.3791 25.7244 24.4609 25.8714 24.5691 25.9979C24.6773 26.1245 24.8097 26.2282 24.9585 26.3029C25.1073 26.3776 25.2696 26.4218 25.4357 26.4329C25.6019 26.4441 25.7686 26.4219 25.926 26.3677C26.0835 26.3135 26.2285 26.2284 26.3526 26.1174C26.4767 26.0064 26.5774 25.8717 26.6488 25.7212C27.145 24.735 28.2087 24.0975 29.3587 24.0975C31.0137 24.0975 32.3587 25.375 32.3587 26.9437C32.3587 27.7062 32.0762 28.3387 31.5025 28.935L24.6988 35.0237ZM60.1413 40.0812C60.1413 40.4128 60.2729 40.7307 60.5074 40.9651C60.7418 41.1995 61.0597 41.3312 61.3913 41.3312H66.4137L62.9512 50.5662C62.8349 50.8767 62.8466 51.2207 62.9839 51.5225C63.1211 51.8243 63.3727 52.0593 63.6831 52.1756C63.9936 52.292 64.3376 52.2802 64.6394 52.143C64.9412 52.0057 65.1761 51.7542 65.2925 51.4437L69.3888 40.5212C69.4596 40.332 69.4836 40.1284 69.4586 39.9279C69.4336 39.7273 69.3605 39.5358 69.2454 39.3698C69.1302 39.2037 68.9766 39.0679 68.7976 38.9741C68.6186 38.8804 68.4196 38.8313 68.2175 38.8312H61.3913C61.0597 38.8312 60.7418 38.9629 60.5074 39.1974C60.2729 39.4318 60.1413 39.7497 60.1413 40.0812ZM47.63 55.7937C47.7836 55.852 47.9471 55.8794 48.1113 55.8745C48.2754 55.8695 48.437 55.8322 48.5868 55.7648C48.7365 55.6973 48.8715 55.601 48.984 55.4814C49.0965 55.3617 49.1844 55.2211 49.2425 55.0675L62.68 19.5675C62.7435 19.4129 62.7754 19.2471 62.7738 19.08C62.7721 18.9128 62.737 18.7477 62.6704 18.5944C62.6038 18.4411 62.5072 18.3027 62.3862 18.1874C62.2652 18.072 62.1223 17.9822 61.9659 17.9231C61.8096 17.8639 61.6429 17.8368 61.4759 17.8432C61.3089 17.8496 61.1448 17.8895 60.9935 17.9604C60.8421 18.0313 60.7065 18.1319 60.5947 18.2561C60.4829 18.3804 60.3971 18.5258 60.3425 18.6837L46.9025 54.1812C46.8442 54.3348 46.8168 54.4983 46.8218 54.6625C46.8268 54.8267 46.864 54.9882 46.9315 55.138C46.9989 55.2877 47.0952 55.4227 47.2149 55.5353C47.3345 55.6478 47.4764 55.7356 47.63 55.7937Z" fill="#265729"/>
</svg>
