<svg width="60" height="60" viewBox="0 0 60 60" fill="none" xmlns="http://www.w3.org/2000/svg">
<g clip-path="url(#clip0_132_312)">
<path d="M57.4031 40.8657C57.0562 39.1032 56.3531 37.4625 55.3875 36.0094L57.2249 34.1813L53.4375 30.3844L51.5906 32.2219C50.1468 31.2563 48.5062 30.5625 46.7437 30.2157V27.6188H41.3718V30.2157C39.6093 30.5719 37.9687 31.2657 36.525 32.2313L34.6875 30.3938L33.525 31.5563L30.9 34.1907L32.7374 36.0282C31.7718 37.4719 31.0781 39.1125 30.7312 40.875H28.1343V46.2469H30.7312C30.9093 47.1375 31.1812 48 31.5187 48.8157C31.8562 49.6219 32.2687 50.3813 32.7468 51.0938L30.9093 52.9313L34.7062 56.7282L36.5437 54.8907C37.9874 55.8469 39.6281 56.5407 41.3906 56.8969V59.4938H46.7625V56.8969C48.525 56.5407 50.1656 55.8469 51.6093 54.8813L53.4468 56.7188L57.2437 52.9219L55.3968 51.0844C56.3624 49.6313 57.0562 47.9907 57.4125 46.2282H60V40.8657H57.4031ZM44.0718 49.4813C40.7999 49.4813 38.1468 46.8281 38.1468 43.5563C38.1468 40.2844 40.7999 37.6313 44.0718 37.6313C47.3437 37.6313 49.9874 40.2844 49.9874 43.5563C49.9874 46.8281 47.3437 49.4813 44.0718 49.4813ZM21.2156 27.6188C26.6999 27.6188 31.1531 23.1657 31.1531 17.6813C31.1531 12.1969 26.7093 7.74377 21.2156 7.74377C15.7312 7.74377 11.2781 12.1969 11.2781 17.6813C11.2781 23.1657 15.7218 27.6188 21.2156 27.6188Z" fill="#48736A"/>
<path d="M27.1969 47.1843V39.9375H29.9812C30.3188 38.6062 30.8438 37.3406 31.5469 36.1593L29.5781 34.1906L32.7375 31.0218C29.4281 28.875 25.4625 27.6187 21.2156 27.6187C9.49687 27.6187 0 37.1156 0 48.825H7.95937V41.6812C7.95937 41.4187 8.16562 41.2125 8.42812 41.2125C8.68125 41.2125 8.89687 41.4187 8.89687 41.6812V48.825H30.525C30.3094 48.2812 30.1313 47.7281 29.9812 47.1843H27.1969ZM38.8687 17.7187L37.5 22.2468L42.4781 19.4531C43.875 19.8843 45.3937 20.1375 46.9875 20.1375C53.8312 20.1375 59.3812 15.7406 59.3812 10.3218C59.3812 4.9031 53.8312 0.506226 46.9875 0.506226C40.1437 0.506226 34.5938 4.9031 34.5938 10.3218C34.6031 13.275 36.2625 15.9187 38.8687 17.7187ZM40.4156 6.53435H53.5687C53.8312 6.53435 54.0375 6.7406 54.0375 7.0031C54.0375 7.2656 53.8312 7.47185 53.5687 7.47185H40.4156C40.1531 7.47185 39.9469 7.2656 39.9469 7.0031C39.9469 6.74998 40.1531 6.53435 40.4156 6.53435ZM40.4156 9.84373H53.5687C53.8312 9.84373 54.0375 10.05 54.0375 10.3125C54.0375 10.575 53.8312 10.7812 53.5687 10.7812H40.4156C40.1531 10.7812 39.9469 10.575 39.9469 10.3125C39.9469 10.0594 40.1531 9.84373 40.4156 9.84373ZM40.4156 13.1625H53.5687C53.8312 13.1625 54.0375 13.3687 54.0375 13.6312C54.0375 13.8937 53.8312 14.1 53.5687 14.1H40.4156C40.1531 14.1 39.9469 13.8937 39.9469 13.6312C39.9469 13.3687 40.1531 13.1625 40.4156 13.1625Z" fill="#48736A"/>
</g>
<defs>
<clipPath id="clip0_132_312">
<rect width="60" height="60" fill="white"/>
</clipPath>
</defs>
</svg>
