<svg width="428" height="428" viewBox="0 0 428 428" fill="none" xmlns="http://www.w3.org/2000/svg">
<path d="M422.64 211.44L379.973 158.107C377.987 155.592 375.459 153.558 372.578 152.155C369.698 150.751 366.538 150.015 363.333 150H235.333V22C235.333 16.3421 233.086 10.9159 229.085 6.91508C225.084 2.9143 219.658 0.666687 214 0.666687C208.342 0.666687 202.916 2.9143 198.915 6.91508C194.914 10.9159 192.667 16.3421 192.667 22V43.3334H64.6667C61.4623 43.3481 58.3025 44.0846 55.4217 45.488C52.541 46.8914 50.0134 48.9258 48.0267 51.44L5.36006 104.773C2.38386 108.54 0.764893 113.2 0.764893 118C0.764893 122.8 2.38386 127.46 5.36006 131.227L48.0267 184.56C50.0134 187.074 52.541 189.109 55.4217 190.512C58.3025 191.915 61.4623 192.652 64.6667 192.667H192.667V384.667H150C144.342 384.667 138.916 386.914 134.915 390.915C130.914 394.916 128.667 400.342 128.667 406C128.667 411.658 130.914 417.084 134.915 421.085C138.916 425.086 144.342 427.333 150 427.333H278C283.658 427.333 289.084 425.086 293.085 421.085C297.086 417.084 299.333 411.658 299.333 406C299.333 400.342 297.086 394.916 293.085 390.915C289.084 386.914 283.658 384.667 278 384.667H235.333V299.333H363.333C366.538 299.319 369.698 298.582 372.578 297.179C375.459 295.775 377.987 293.741 379.973 291.227L422.64 237.893C425.616 234.127 427.235 229.467 427.235 224.667C427.235 219.866 425.616 215.206 422.64 211.44ZM192.667 150H74.9067L49.3067 118L74.9067 86H192.667V150ZM353.093 256.667H235.333V192.667H353.093L378.693 224.667L353.093 256.667Z" fill="#48736A"/>
</svg>
