<svg width="60" height="60" viewBox="0 0 60 60" fill="none" xmlns="http://www.w3.org/2000/svg">
<path fill-rule="evenodd" clip-rule="evenodd" d="M38.785 28.875L37.1775 30.4825C36.945 30.7147 36.7606 30.9904 36.6348 31.2939C36.509 31.5974 36.4442 31.9227 36.4442 32.2512C36.4442 32.5798 36.509 32.9051 36.6348 33.2086C36.7606 33.5121 36.945 33.7878 37.1775 34.02L38.1425 34.9825C38.6113 35.4512 39.247 35.7145 39.91 35.7145C40.5729 35.7145 41.2086 35.4512 41.6775 34.9825L43.285 33.3725L47.785 37.8725C50.4781 35.1789 52.2192 31.6804 52.7444 27.9078C53.2695 24.1352 52.55 20.2942 50.695 16.9675L56.14 11.52C56.6086 11.0512 56.8719 10.4154 56.8719 9.75249C56.8719 9.08958 56.6086 8.45381 56.14 7.98499L52.925 4.76749C52.4561 4.29881 51.8204 4.03552 51.1575 4.03552C50.4945 4.03552 49.8588 4.29881 49.39 4.76749L43.945 10.215C40.6177 8.35871 36.7757 7.63851 33.002 8.16369C29.2283 8.68886 25.7289 10.4307 23.035 13.125L27.535 17.625L25.925 19.2325C25.4563 19.7013 25.193 20.3371 25.193 21C25.193 21.6629 25.4563 22.2987 25.925 22.7675L26.89 23.73C27.3588 24.1987 27.9945 24.462 28.6575 24.462C29.3204 24.462 29.9561 24.1987 30.425 23.73L32.0325 22.1225L38.7875 28.8725L38.785 28.875ZM12.25 41.91L6.79996 47.355C6.33128 47.8238 6.06799 48.4596 6.06799 49.1225C6.06799 49.7854 6.33128 50.4212 6.79996 50.89L10.015 54.105C10.4838 54.5737 11.1195 54.837 11.7825 54.837C12.4454 54.837 13.0811 54.5737 13.55 54.105L18.995 48.66C22.3222 50.5163 26.1642 51.2365 29.9379 50.7113C33.7116 50.1861 37.211 48.4442 39.905 45.75L15.155 21C12.4609 23.6947 10.7197 27.1949 10.1954 30.9691C9.67109 34.7433 10.3924 38.583 12.25 41.91Z" fill="#48736A" stroke="#48736A"/>
</svg>
