<svg width="100" height="100" viewBox="0 0 100 100" fill="none" xmlns="http://www.w3.org/2000/svg">
<path d="M42.1875 81.0469C43.5294 80.7027 44.7186 79.9216 45.5674 78.8266C46.4162 77.7317 46.8762 76.3854 46.875 75V43.75C46.8762 42.3646 46.4162 41.0183 45.5674 39.9234C44.7186 38.8284 43.5294 38.0473 42.1875 37.7031C41.6785 37.5636 41.1527 37.4952 40.625 37.5H9.375C8.55417 37.4998 7.74134 37.6613 6.98295 37.9753C6.22456 38.2893 5.53548 38.7497 4.95507 39.3301C4.37465 39.9105 3.91429 40.5996 3.60028 41.358C3.28627 42.1163 3.12477 42.9292 3.125 43.75V75C3.12478 75.8208 3.28628 76.6336 3.6003 77.392C3.91431 78.1504 4.37467 78.8395 4.95508 79.4199C5.53549 80.0003 6.22458 80.4607 6.98296 80.7747C7.74135 81.0887 8.55418 81.2502 9.375 81.25H40.625C41.1527 81.2547 41.6785 81.1864 42.1875 81.0469ZM17.1875 75H10.9375C10.5271 74.9939 10.1356 74.8266 9.84755 74.5342C9.5595 74.2418 9.39804 73.8479 9.39805 73.4374C9.39806 73.027 9.55955 72.6331 9.84762 72.3407C10.1357 72.0484 10.5272 71.8811 10.9376 71.875H17.1875C17.5979 71.8811 17.9894 72.0484 18.2775 72.3407C18.5655 72.6331 18.727 73.0271 18.727 73.4375C18.727 73.8479 18.5655 74.2419 18.2775 74.5342C17.9894 74.8266 17.5979 74.9939 17.1875 75ZM20.3125 68.75H10.9375C10.5271 68.7439 10.1356 68.5766 9.84755 68.2842C9.5595 67.9918 9.39804 67.5979 9.39805 67.1874C9.39806 66.777 9.55955 66.3831 9.84762 66.0907C10.1357 65.7984 10.5272 65.6311 10.9376 65.625H20.3125C20.7229 65.6311 21.1144 65.7984 21.4025 66.0907C21.6905 66.3831 21.852 66.7771 21.852 67.1875C21.852 67.5979 21.6905 67.9919 21.4025 68.2842C21.1144 68.5766 20.7229 68.7439 20.3125 68.75ZM34.375 45.3125C34.3714 46.5546 33.8763 47.7448 32.998 48.623C32.1198 49.5013 30.9296 49.9964 29.6875 50H20.3125C19.0704 49.9964 17.8802 49.5013 17.002 48.623C16.1237 47.7448 15.6286 46.5546 15.625 45.3125V40.625H18.75V45.3125C18.7512 45.7265 18.9163 46.1232 19.209 46.416C19.5018 46.7087 19.8985 46.8738 20.3125 46.875H29.6875C30.1015 46.8738 30.4982 46.7087 30.791 46.416C31.0837 46.1232 31.2488 45.7265 31.25 45.3125V40.625H34.375V45.3125ZM56.25 26.5625H71.875C73.1168 26.5579 74.3064 26.0626 75.1845 25.1845C76.0626 24.3064 76.5579 23.1168 76.5625 21.875V14.0625C76.5589 12.8204 76.0639 11.6302 75.1856 10.7519C74.3073 9.87365 73.1171 9.37862 71.875 9.375H56.25C55.0079 9.37862 53.8177 9.87365 52.9394 10.7519C52.0611 11.6302 51.5661 12.8204 51.5625 14.0625V21.875C51.5679 23.1165 52.0635 24.3057 52.9414 25.1836C53.8193 26.0615 55.0085 26.5571 56.25 26.5625Z" fill="#265729"/>
<path d="M89.0625 15.625H79.6875V21.875H85.9375C86.7656 21.8774 87.559 22.2074 88.1445 22.793C88.7301 23.3785 89.0601 24.1719 89.0625 25V81.25C89.0601 82.078 88.73 82.8715 88.1445 83.457C87.559 84.0425 86.7656 84.3726 85.9375 84.375C77.9599 84.3809 38.5001 84.3688 31.4063 84.375C31.7666 86.1396 32.7255 87.7255 34.1206 88.8644C35.5158 90.0033 37.2615 90.6252 39.0625 90.625H89.0625C91.1343 90.6243 93.121 89.8009 94.5859 88.3359C96.0509 86.871 96.8743 84.8843 96.875 82.8125V23.4375C96.8743 21.3657 96.0509 19.379 94.5859 17.9141C93.121 16.4491 91.1343 15.6257 89.0625 15.625ZM39.0625 25C39.0649 24.1719 39.3949 23.3785 39.9805 22.793C40.566 22.2074 41.3594 21.8774 42.1875 21.875H48.4375V15.625H39.0625C36.9907 15.6257 35.004 16.4491 33.5391 17.9141C32.0741 19.379 31.2507 21.3657 31.25 23.4375V34.375H39.0625V25Z" fill="#265729"/>
<path d="M42.1875 34.5C44.3732 34.8691 46.3574 36.0008 47.7877 37.6943C49.218 39.3878 50.0018 41.5333 50 43.75V75C50.0022 77.307 49.1506 79.5333 47.6094 81.25H85.9375V25H79.0313C78.4153 26.3866 77.4126 27.5662 76.1434 28.3976C74.8742 29.2289 73.3922 29.6768 71.875 29.6875H56.25C54.734 29.6802 53.2526 29.2336 51.9852 28.4016C50.7179 27.5697 49.7189 26.3881 49.1094 25H42.1875V34.5ZM69.9844 37.9531C70.2794 37.6604 70.6781 37.4961 71.0938 37.4961C71.5094 37.4961 71.9081 37.6604 72.2031 37.9531L74.2188 39.9844L80.1406 34.0469C80.4368 33.7622 80.8328 33.6051 81.2435 33.6092C81.6543 33.6133 82.0471 33.7782 82.3375 34.0687C82.628 34.3592 82.793 34.752 82.7971 35.1627C82.8012 35.5735 82.644 35.9694 82.3594 36.2656L75.3281 43.2969C75.0314 43.5864 74.6333 43.7484 74.2188 43.7484C73.8042 43.7484 73.4061 43.5864 73.1094 43.2969L69.9844 40.1719C69.6916 39.8769 69.5274 39.4781 69.5274 39.0625C69.5274 38.6469 69.6916 38.2481 69.9844 37.9531ZM69.9844 52.0156C70.2794 51.7229 70.6781 51.5586 71.0938 51.5586C71.5094 51.5586 71.9081 51.7229 72.2031 52.0156L74.2188 54.0469L80.1406 48.1094C80.4368 47.8247 80.8328 47.6676 81.2435 47.6717C81.6543 47.6758 82.0471 47.8407 82.3375 48.1312C82.628 48.4217 82.793 48.8145 82.7971 49.2252C82.8012 49.636 82.644 50.0319 82.3594 50.3281L75.3281 57.3594C75.0314 57.6489 74.6333 57.8109 74.2188 57.8109C73.8042 57.8109 73.4061 57.6489 73.1094 57.3594L69.9844 54.2344C69.6916 53.9394 69.5274 53.5406 69.5274 53.125C69.5274 52.7094 69.6916 52.3106 69.9844 52.0156ZM69.9844 66.0781C70.2794 65.7854 70.6781 65.6211 71.0938 65.6211C71.5094 65.6211 71.9081 65.7854 72.2031 66.0781L74.2188 68.1094L80.1406 62.1719C80.4368 61.8872 80.8328 61.7301 81.2435 61.7342C81.6543 61.7383 82.0471 61.9032 82.3375 62.1937C82.628 62.4842 82.793 62.877 82.7971 63.2877C82.8012 63.6985 82.644 64.0944 82.3594 64.3906L75.3281 71.4219C75.0314 71.7114 74.6333 71.8734 74.2188 71.8734C73.8042 71.8734 73.4061 71.7114 73.1094 71.4219L69.9844 68.2969C69.6916 68.0019 69.5274 67.6031 69.5274 67.1875C69.5274 66.7719 69.6916 66.3731 69.9844 66.0781ZM52.3438 39.0625C52.4736 39.0654 64.8873 39.0604 64.8438 39.0625C65.2542 39.0686 65.6457 39.2359 65.9338 39.5283C66.2218 39.8207 66.3833 40.2147 66.3832 40.6251C66.3832 41.0355 66.2217 41.4295 65.9337 41.7218C65.6456 42.0142 65.254 42.1814 64.8437 42.1875H52.3438C51.9334 42.1814 51.5418 42.0141 51.2538 41.7218C50.9657 41.4294 50.8043 41.0354 50.8043 40.625C50.8043 40.2146 50.9657 39.8206 51.2538 39.5282C51.5418 39.2359 51.9334 39.0686 52.3438 39.0625ZM52.3438 53.125C52.4736 53.1279 64.8873 53.1229 64.8438 53.125C65.2542 53.1311 65.6457 53.2984 65.9338 53.5908C66.2218 53.8832 66.3833 54.2772 66.3832 54.6876C66.3832 55.098 66.2217 55.492 65.9337 55.7843C65.6456 56.0767 65.254 56.2439 64.8437 56.25H52.3438C51.9334 56.2439 51.5418 56.0766 51.2538 55.7842C50.9657 55.4919 50.8043 55.0979 50.8043 54.6875C50.8043 54.2771 50.9657 53.8831 51.2538 53.5908C51.5418 53.2984 51.9334 53.1311 52.3438 53.125ZM52.3438 67.1875C52.4736 67.1904 64.8873 67.1854 64.8438 67.1875C65.2542 67.1936 65.6457 67.3609 65.9338 67.6533C66.2218 67.9457 66.3833 68.3397 66.3832 68.7501C66.3832 69.1605 66.2217 69.5545 65.9337 69.8468C65.6456 70.1392 65.254 70.3064 64.8437 70.3125H52.3438C51.9334 70.3064 51.5418 70.1391 51.2538 69.8467C50.9657 69.5544 50.8043 69.1604 50.8043 68.75C50.8043 68.3396 50.9657 67.9456 51.2538 67.6533C51.5418 67.3609 51.9334 67.1936 52.3438 67.1875Z" fill="#265729"/>
</svg>
