<svg width="100" height="100" viewBox="0 0 100 100" fill="none" xmlns="http://www.w3.org/2000/svg">
<path fill-rule="evenodd" clip-rule="evenodd" d="M72.2906 16.1875C71.9911 16.1439 71.6859 16.1619 71.3937 16.2406L67.4937 17.2844C67.4916 17.2844 67.4895 17.2844 67.4875 17.2844C66.9061 17.4489 66.4121 17.8341 66.1108 18.3578C65.8096 18.8815 65.7249 19.5022 65.875 20.0875L67.0593 24.4937C66.1312 25.0562 65.2687 25.7125 64.4781 26.4594L60.5406 24.1812C60.0138 23.8837 59.3913 23.8047 58.8069 23.9613C58.2225 24.1179 57.7229 24.4976 57.4156 25.0187L55.3968 28.5156C55.1006 29.0433 55.0231 29.6661 55.1808 30.2504C55.3385 30.8346 55.719 31.3337 56.2406 31.6406L60.1781 33.9187C59.925 34.9719 59.7812 36.0437 59.7531 37.1281L55.3531 38.3125C54.7722 38.4751 54.2778 38.8582 53.9754 39.3801C53.673 39.902 53.5865 40.5214 53.7343 41.1063L53.9968 42.075L54.5218 44.0375L54.7843 45.0062C55.1062 46.2094 56.3781 46.9375 57.5812 46.6187L61.9812 45.4406C62.55 46.3687 63.2093 47.2219 63.9593 48.0094L61.6812 51.9594C61.3851 52.4848 61.3062 53.1053 61.4615 53.6881C61.6169 54.2709 61.9941 54.7698 62.5125 55.0781C62.5145 55.0781 62.5166 55.0781 62.5187 55.0781L66.0156 57.0969C67.0937 57.7219 68.5125 57.3406 69.1343 56.2625L71.4125 52.325C72.4656 52.575 73.5375 52.7094 74.6218 52.7344L75.8062 57.1406C75.9687 57.7229 76.3528 58.2183 76.8762 58.5209C77.3995 58.8235 78.0205 58.9091 78.6062 58.7594L82.5062 57.7156C83.0892 57.5531 83.5852 57.1686 83.8878 56.6445C84.1904 56.1204 84.2756 55.4986 84.125 54.9125L82.9468 50.5125C83.8718 49.9437 84.7281 49.2844 85.5156 48.5344L89.4593 50.8156C89.9859 51.1126 90.6079 51.1916 91.192 51.0357C91.7761 50.8797 92.2759 50.5012 92.5843 49.9813L94.6031 46.4844C94.8993 45.9567 94.9769 45.3339 94.8191 44.7496C94.6614 44.1654 94.2809 43.6663 93.7593 43.3594L89.825 41.0812C90.075 40.0281 90.2156 38.9563 90.2406 37.8719L94.6468 36.6875C95.2286 36.5263 95.724 36.1435 96.0267 35.6212C96.3293 35.0988 96.4151 34.4786 96.2656 33.8937L96.0031 32.925L95.4781 30.9687L95.2156 29.9937C95.0545 29.4115 94.6709 28.916 94.1476 28.6143C93.6243 28.3126 93.0032 28.2289 92.4187 28.3812L88.0125 29.5594C87.45 28.6341 86.7911 27.7709 86.0468 26.9844L88.3187 23.0406C88.6151 22.5146 88.6935 21.8933 88.5369 21.3102C88.3803 20.7271 88.0013 20.2286 87.4812 19.9219L83.9843 17.9031C83.4585 17.6072 82.8378 17.5289 82.2549 17.6848C81.6721 17.8407 81.1734 18.2186 80.8656 18.7375L78.5843 22.6812C77.5317 22.4251 76.4548 22.2816 75.3718 22.2531L74.1937 17.8594C74.0722 17.4259 73.8274 17.0371 73.4889 16.7403C73.1505 16.4434 72.7362 16.2514 72.2906 16.1875ZM71.7968 18.775L73.1187 23.7187C73.1934 24.0002 73.3621 24.2477 73.5969 24.42C73.8317 24.5922 74.1184 24.6789 74.4093 24.6656C75.9218 24.5969 77.4406 24.7969 78.8875 25.2562C79.1649 25.344 79.4641 25.3343 79.7353 25.2285C80.0065 25.1228 80.2333 24.9275 80.3781 24.675L82.9406 20.2469L85.9718 21.9969L83.4218 26.4219C83.2751 26.673 83.2187 26.9667 83.2619 27.2544C83.3051 27.542 83.4453 27.8062 83.6593 28.0031C84.7781 29.0281 85.7062 30.2437 86.4 31.5906C86.5336 31.8504 86.7524 32.0564 87.0198 32.1741C87.2871 32.2919 87.5868 32.3143 87.8687 32.2375L92.8156 30.9094L93.0125 31.6281L93.5375 33.5813L93.7312 34.2969L88.775 35.625C88.4929 35.6997 88.245 35.869 88.0727 36.1044C87.9004 36.3399 87.814 36.6273 87.8281 36.9187C87.9031 38.4344 87.7093 39.95 87.2562 41.4C87.1676 41.6764 87.176 41.9749 87.2799 42.2459C87.3839 42.5169 87.5773 42.7444 87.8281 42.8906L92.2531 45.4406L90.5093 48.4812L86.0718 45.9187C85.8194 45.7735 85.5248 45.7192 85.2371 45.7646C84.9494 45.8101 84.686 45.9527 84.4906 46.1687C83.4679 47.2873 82.2555 48.2162 80.9093 48.9125C80.6526 49.0468 80.4493 49.2645 80.3329 49.5298C80.2165 49.795 80.1938 50.092 80.2687 50.3719L81.5906 55.3219L78.2031 56.2312L76.875 51.2687C76.7984 50.9885 76.6284 50.7427 76.3931 50.5722C76.1579 50.4017 75.8714 50.3167 75.5812 50.3312C74.0652 50.4061 72.5479 50.2115 71.1 49.7562C70.8237 49.6698 70.5262 49.6799 70.2564 49.785C69.9866 49.89 69.7606 50.0838 69.6156 50.3344L67.0593 54.7594L64.0281 53.0031L66.5843 48.5719C66.7319 48.3194 66.7882 48.0239 66.7438 47.7349C66.6995 47.4459 66.5571 47.1809 66.3406 46.9844C65.2191 45.9645 64.287 44.7542 63.5875 43.4094C63.4528 43.1507 63.2336 42.9461 62.9663 42.8295C62.699 42.7129 62.3999 42.6915 62.1187 42.7687L57.1812 44.0906L56.9875 43.3781L56.4625 41.425L56.2687 40.7094L61.2187 39.3813C61.4985 39.3048 61.7438 39.1353 61.9142 38.9007C62.0847 38.666 62.17 38.3803 62.1562 38.0906C62.0909 36.5763 62.294 35.0623 62.7562 33.6187C62.8456 33.3404 62.8366 33.0398 62.7308 32.7673C62.625 32.4948 62.4288 32.2669 62.175 32.1219L57.7375 29.5594L59.4906 26.5281L63.9218 29.0844C64.173 29.2287 64.4658 29.2832 64.7521 29.2389C65.0384 29.1946 65.301 29.0541 65.4968 28.8406C66.5218 27.7228 67.7363 26.795 69.0843 26.1C69.3458 25.9679 69.5538 25.7497 69.6733 25.4822C69.7929 25.2147 69.8166 24.9142 69.7406 24.6312L68.4062 19.6875L71.7937 18.7781L71.7968 18.775ZM74.4437 28.1625C72.554 28.2748 70.7429 28.958 69.25 30.1219L70.8187 32.1344C71.5156 31.5938 72.3312 31.1781 73.2437 30.9312C76.8687 29.9625 80.5531 32.0812 81.55 35.6937C82.0255 37.4409 81.7876 39.3053 80.8886 40.877C79.9896 42.4488 78.5032 43.5991 76.7562 44.075C75.8808 44.3109 74.9668 44.3683 74.0687 44.2437L73.7125 46.7719C74.9218 46.9437 76.175 46.8719 77.4156 46.5406H77.4218C82.3906 45.2094 85.3218 40.0406 84.0218 35.0844H84.0343C83.4727 33.0053 82.213 31.1827 80.4667 29.9224C78.7205 28.662 76.5938 28.0406 74.4437 28.1625ZM28.9906 32.7687C28.6245 32.7149 28.2513 32.7362 27.8937 32.8312V32.8375L23.1125 34.1187C22.4006 34.3178 21.7952 34.7879 21.426 35.4282C21.0567 36.0685 20.9532 36.828 21.1375 37.5437L22.5843 42.9375C21.4477 43.6274 20.3876 44.4361 19.4218 45.35L14.6 42.5687C13.9569 42.2034 13.1961 42.1052 12.4814 42.2951C11.7666 42.4851 11.155 42.948 10.7781 43.5844L8.29996 47.8687C7.93626 48.5131 7.83989 49.2745 8.03156 49.9891C8.22322 50.7038 8.68763 51.3147 9.32496 51.6906L14.1593 54.4812C13.8468 55.7719 13.6781 57.0875 13.6406 58.4187L8.25308 59.8625C8.251 59.8625 8.24891 59.8625 8.24683 59.8625C7.53444 60.0609 6.92824 60.5307 6.55839 61.1711C6.18854 61.8114 6.08454 62.5713 6.26871 63.2875L7.23121 66.8688L7.54996 68.0656C7.94371 69.5375 9.50621 70.4406 10.9812 70.0437L16.3625 68.6063C17.0593 69.7375 17.8687 70.7844 18.7875 71.7469L15.9968 76.5812C15.6338 77.2263 15.5378 77.9878 15.7294 78.7028C15.921 79.4177 16.3849 80.0292 17.0218 80.4062L21.3031 82.8781C21.9481 83.2412 22.7096 83.3372 23.4246 83.1456C24.1395 82.954 24.751 82.4901 25.1281 81.8531L27.9093 77.0312C29.2062 77.3437 30.5187 77.5 31.8468 77.5312L33.2937 82.9281C33.4921 83.6421 33.9626 84.2499 34.6042 84.6209C35.2457 84.9919 36.0071 85.0966 36.725 84.9125L41.4968 83.6312C42.2104 83.4321 42.8176 82.9615 43.1885 82.3202C43.5594 81.6789 43.6645 80.9178 43.4812 80.2L42.0343 74.8156C43.165 74.1218 44.2188 73.31 45.1781 72.3937L50.0125 75.1844C50.0145 75.1844 50.0166 75.1844 50.0187 75.1844C50.6627 75.5483 51.4238 75.6452 52.1384 75.4541C52.853 75.263 53.4642 74.7993 53.8406 74.1625L56.3093 69.8844C56.6724 69.2394 56.7684 68.4778 56.5768 67.7629C56.3852 67.0479 55.9213 66.4364 55.2843 66.0594L50.4625 63.275C50.7718 61.9812 50.9343 60.6688 50.9625 59.3375L56.3687 57.8906C57.0808 57.6909 57.6862 57.2202 58.0554 56.5794C58.4246 55.9386 58.5281 55.1787 58.3437 54.4625L58.0187 53.2594H58.025L57.3843 50.8719L57.0625 49.675C56.8647 48.962 56.3952 48.3551 55.7547 47.9846C55.1143 47.6141 54.3541 47.5097 53.6375 47.6937L48.2375 49.1406C47.5468 48.0031 46.7437 46.95 45.8312 45.9844L48.6218 41.1625C48.9856 40.5168 49.0816 39.7542 48.8894 39.0385C48.6972 38.3228 48.232 37.7109 47.5937 37.3344L43.3125 34.8656C42.6685 34.5017 41.9074 34.4048 41.1928 34.5959C40.4782 34.787 39.867 35.2507 39.4906 35.8875L36.7 40.7156C35.4095 40.4037 34.0896 40.2298 32.7625 40.1969L31.3156 34.8094C31.1685 34.28 30.8702 33.805 30.4572 33.4425C30.0443 33.0801 29.5346 32.8459 28.9906 32.7687ZM66.9 32.825C65.6749 34.9472 65.3348 37.4664 65.9531 39.8375L65.9218 39.8438C66.2593 41.1 66.8593 42.2812 67.6156 43.25H67.6218C68.3687 44.2094 69.2875 45.0062 70.325 45.6062L71.6 43.3969C70.8394 42.9557 70.171 42.3722 69.6312 41.6781C69.0817 40.9549 68.6716 40.1357 68.4218 39.2625H68.4312C68.1985 38.3998 68.1387 37.4995 68.255 36.6136C68.3714 35.7276 68.6617 34.8734 69.1093 34.1L66.9 32.825ZM28.3875 35.9375L30.0062 41.9875C30.0983 42.3311 30.305 42.6329 30.5919 42.8432C30.8789 43.0534 31.229 43.1594 31.5843 43.1437C33.44 43.062 35.2956 43.3085 37.0656 43.8719C37.4047 43.9796 37.7705 43.9683 38.1023 43.8398C38.4342 43.7114 38.7123 43.4736 38.8906 43.1656L42.0281 37.7313L45.7468 39.8813L42.6218 45.3C42.4445 45.6067 42.3767 45.9646 42.4295 46.315C42.4823 46.6653 42.6526 46.9873 42.9125 47.2281C44.2812 48.4844 45.4218 49.9781 46.2718 51.6281C46.435 51.9441 46.701 52.1949 47.026 52.3393C47.351 52.4836 47.7155 52.5127 48.0593 52.4219L54.1312 50.7969L54.3687 51.6844H54.3625L55.2375 54.95L49.175 56.5781C48.8308 56.6704 48.5286 56.8775 48.3183 57.1651C48.108 57.4526 48.0023 57.8035 48.0187 58.1594C48.1097 60.0157 47.8716 61.8735 47.3156 63.6469C47.2095 63.9852 47.2216 64.3495 47.3499 64.68C47.4783 65.0105 47.7152 65.2876 48.0218 65.4656L53.4437 68.5969L51.2937 72.3156L45.8625 69.1781C45.5534 68.9999 45.1927 68.9327 44.8402 68.9879C44.4878 69.043 44.1648 69.2171 43.925 69.4812C42.675 70.8562 41.1937 71.9969 39.5437 72.85C39.2282 73.0143 38.9783 73.2813 38.8351 73.6068C38.6919 73.9324 38.6641 74.2971 38.7562 74.6406L40.375 80.6937L36.2312 81.8062L34.6 75.7375C34.5071 75.394 34.2998 75.0924 34.0122 74.8827C33.7247 74.673 33.3742 74.5678 33.0187 74.5844C31.1632 74.6746 29.3064 74.4355 27.5343 73.8781C27.1953 73.7726 26.8305 73.7856 26.4999 73.9151C26.1693 74.0446 25.8927 74.2829 25.7156 74.5906L22.5843 80.0062L18.8656 77.8625L22.0031 72.4312C22.181 72.1219 22.2476 71.7609 22.1919 71.4085C22.1362 71.056 21.9615 70.7332 21.6968 70.4938C20.3218 69.2438 19.1843 67.7625 18.3281 66.1125C18.1649 65.7965 17.8989 65.5457 17.5739 65.4014C17.2489 65.257 16.8844 65.2279 16.5406 65.3187L10.4843 66.9438L10.2468 66.0656L9.37496 62.7937L15.4312 61.175C15.7748 61.0821 16.0763 60.8748 16.286 60.5873C16.4957 60.2997 16.6009 59.9492 16.5843 59.5937C16.5008 57.7382 16.7463 55.8825 17.3093 54.1125C17.4173 53.7737 17.4064 53.4082 17.2786 53.0764C17.1508 52.7446 16.9136 52.4663 16.6062 52.2875L11.175 49.1562L13.3187 45.4375L18.7375 48.5625C19.0461 48.7411 19.4067 48.8088 19.7591 48.7542C20.1116 48.6996 20.4347 48.5261 20.675 48.2625C21.9285 46.8943 23.4138 45.7581 25.0625 44.9062C25.3784 44.7431 25.6293 44.477 25.7736 44.152C25.9179 43.827 25.9471 43.4625 25.8562 43.1187L24.2312 37.0469L28.3843 35.9406L28.3875 35.9375ZM31.6281 47.4375C29.3142 47.5727 27.0962 48.4087 25.2687 49.8344L27.1906 52.3031C28.0437 51.6375 29.0343 51.1281 30.15 50.8312C32.272 50.258 34.5347 50.5497 36.4421 51.6422C38.3495 52.7347 39.7458 54.5389 40.325 56.6594C41.5187 61.1188 38.9062 65.7281 34.4593 66.9187C33.3864 67.2084 32.2659 67.2775 31.1656 67.1219L30.7312 70.2156C32.2093 70.4219 33.75 70.3344 35.2718 69.9281C41.3531 68.3 44.9437 61.9844 43.3593 55.9156L43.3718 55.9094C42.6844 53.3636 41.142 51.132 39.0034 49.5893C36.8649 48.0466 34.2607 47.2868 31.6281 47.4375ZM22.3875 53.15C21.6486 54.4284 21.1636 55.8376 20.9593 57.3C20.7558 58.7821 20.845 60.2897 21.2218 61.7375L21.1906 61.7437C21.6031 63.2812 22.3406 64.7219 23.2656 65.9125C24.1812 67.0875 25.3125 68.0594 26.5781 68.7937L28.1406 66.0875C27.2187 65.5563 26.3968 64.8406 25.7343 63.9906C25.06 63.1038 24.5566 62.0992 24.25 61.0281H24.2625C23.9768 59.9718 23.9029 58.8694 24.045 57.7845C24.1871 56.6995 24.5425 55.6533 25.0906 54.7062L22.3875 53.15Z" fill="#265729"/>
</svg>
