<svg width="100" height="100" viewBox="0 0 100 100" fill="none" xmlns="http://www.w3.org/2000/svg">
<path d="M92.0422 80.7625C91.6438 78.6266 90.4469 76.5938 88.6734 75.0391L75.2859 63.3109C77.8016 58.3891 79.25 52.8219 79.25 46.9141C79.25 27.0781 63.2266 10.9375 43.5312 10.9375C23.8359 10.9375 7.8125 27.0781 7.8125 46.9141C7.8125 66.7516 23.8359 82.8906 43.5312 82.8906C51.9219 82.8906 59.6312 79.9406 65.7344 75.0453L78.7906 86.4844C80.5656 88.0391 82.7297 88.95 84.8844 89.0516C85.0188 89.0609 85.1531 89.0625 85.2859 89.0625C87.4203 89.0625 89.2891 88.2531 90.5781 86.7609C91.9484 85.175 92.4688 83.0453 92.0422 80.7625ZM11.1719 46.9141C11.1719 28.9422 25.6891 14.3203 43.5312 14.3203C61.375 14.3203 75.8922 28.9422 75.8922 46.9141C75.8922 64.8859 61.375 79.5078 43.5312 79.5078C25.6875 79.5078 11.1719 64.8859 11.1719 46.9141ZM88.0453 84.5391C87.3625 85.3297 86.3156 85.7344 85.0406 85.6734C83.6391 85.6078 82.2016 84.9891 80.9953 83.9328L68.2812 72.7969C70.2875 70.8484 72.0625 68.6688 73.5766 66.2969L86.4688 77.5922C87.675 78.6484 88.4812 79.9953 88.7406 81.3859C88.9734 82.6313 88.7266 83.7516 88.0453 84.5391Z" fill="#265729"/>
<path d="M60.2407 28.6921H26.8235C24.9704 28.6921 23.4641 30.2093 23.4641 32.0749V40.9437C23.4641 42.8093 24.9704 44.3281 26.8235 44.3281H27.2282V64.3874C27.2282 66.2531 28.7344 67.7718 30.5875 67.7718H56.4766C58.3297 67.7718 59.836 66.2546 59.836 64.3874V44.3281H60.2407C62.0938 44.3281 63.6 42.8093 63.6 40.9437V32.0749C63.6 30.2093 62.0938 28.6921 60.2407 28.6921ZM56.4719 64.3874H30.5875V44.3281H56.4766L56.4719 64.3874ZM60.236 40.9437H56.4766H30.5875H26.8235V32.0749H60.2407L60.236 40.9437Z" fill="#265729"/>
</svg>
