<svg width="60" height="60" viewBox="0 0 60 60" fill="none" xmlns="http://www.w3.org/2000/svg">
<path d="M52.5169 26.0475H50.0756V24.4369C50.0756 13.3669 41.07 4.36127 29.9981 4.36127C18.9262 4.36127 9.9225 13.3669 9.9225 24.4369V26.0475H7.48312C5.42062 26.0475 3.75 27.7181 3.75 29.7806V38.0306C3.75 40.0913 5.42062 41.7619 7.48312 41.7619H11.9269C12.6844 41.7619 13.2975 41.1488 13.2975 40.3913C13.2975 35.0738 13.2975 29.7544 13.2975 24.4369C13.2975 15.2269 20.79 7.73627 30 7.73627C39.21 7.73627 46.7025 15.2288 46.7025 24.4369C46.7025 28.545 46.7025 32.6531 46.7025 36.7631C46.7025 38.445 46.7025 40.1269 46.7025 41.8088C46.7025 45.3806 43.7962 48.2888 40.2225 48.2888H34.4831C33.8475 46.9388 32.4844 45.9994 30.8944 45.9994H29.1038C26.9081 45.9994 25.1269 47.7806 25.1269 49.9763C25.1269 52.1719 26.9081 53.9531 29.1038 53.9531H30.8944C32.4844 53.9531 33.8475 53.0119 34.4831 51.6638H40.2206C45.6544 51.6638 50.0737 47.2444 50.0737 41.8106V41.7638H52.515C54.5756 41.7638 56.2481 40.0931 56.2481 38.0325V29.7825C56.25 27.7181 54.5794 26.0475 52.5169 26.0475Z" fill="#48736A"/>
</svg>
